<svg width="32" height="32" viewBox="0 0 32 32" fill="none" xmlns="http://www.w3.org/2000/svg">
<path fill-rule="evenodd" clip-rule="evenodd" d="M14.3867 5.84931L14.276 5.72398C14.0464 5.49441 13.7409 5.3565 13.4169 5.33613C13.0929 5.31575 12.7725 5.41431 12.516 5.61331L12.3907 5.72398L3.05734 15.0573L3.00134 15.116L2.92801 15.2066L2.83334 15.3533L2.76134 15.5053L2.71467 15.6453L2.67467 15.8426L2.66667 16L2.67067 16.1L2.69334 16.268L2.73334 16.416L2.79201 16.564L2.86134 16.6946L2.96001 16.8333L3.05734 16.9426L12.3907 26.276C12.6306 26.5151 12.9526 26.6539 13.2912 26.6643C13.6298 26.6746 13.9596 26.5557 14.2137 26.3316C14.4678 26.1076 14.6271 25.7952 14.6592 25.458C14.6913 25.1208 14.5939 24.784 14.3867 24.516L14.276 24.3906L7.22134 17.3333H28C28.3536 17.3333 28.6928 17.1928 28.9428 16.9428C29.1929 16.6927 29.3333 16.3536 29.3333 16C29.3333 15.6464 29.1929 15.3072 28.9428 15.0572C28.6928 14.8071 28.3536 14.6666 28 14.6666H7.21867L14.276 7.60931C14.5056 7.37972 14.6435 7.07425 14.6639 6.75022C14.6842 6.42618 14.5857 6.10585 14.3867 5.84931L14.276 5.72398L14.3867 5.84931Z" fill="#061428"/>
</svg>
