<svg width="20" height="32" viewBox="0 0 20 32" fill="none" xmlns="http://www.w3.org/2000/svg">
<path d="M9.99453 6.2783C11.4521 6.2783 12.6337 5.09671 12.6337 3.63915C12.6337 2.18159 11.4521 1 9.99453 1C8.53696 1 7.35538 2.18159 7.35538 3.63915C7.35538 5.09671 8.53696 6.2783 9.99453 6.2783Z" stroke="#061428" stroke-width="1.5" stroke-miterlimit="10"/>
<path d="M15.211 31L15.6643 20.7739C17.4104 20.4282 19.171 19.625 18.9867 18.6171L17.8859 10.8351C17.7015 9.82598 16.0391 9 14.1932 9H5.8076C3.96164 9 2.29928 9.82598 2.11491 10.8351L1.01333 18.6171C0.828962 19.6263 2.58888 20.4282 4.33729 20.7739L4.78821 31" stroke="#061428" stroke-width="1.5" stroke-miterlimit="10" stroke-linecap="round" stroke-linejoin="round"/>
</svg>
