<svg width="33" height="73" viewBox="0 0 33 73" fill="none" xmlns="http://www.w3.org/2000/svg">
<path d="M16.5 13.695C19.9192 13.695 22.691 10.9232 22.691 7.504C22.691 4.08481 19.9192 1.313 16.5 1.313C13.0808 1.313 10.309 4.08481 10.309 7.504C10.309 10.9232 13.0808 13.695 16.5 13.695Z" stroke="#061428" stroke-width="2.5" stroke-miterlimit="10"/>
<path d="M21.588 71.688L22.826 51.067H31.617C25.999 37.444 24.889 22.777 24.889 22.777C24.222 20.694 22.748 19.561 20.345 19.561H12.653C10.25 19.561 8.776 20.694 8.109 22.777C8.109 22.777 7 37.444 1.381 51.067H10.172L11.411 71.688" stroke="#061428" stroke-width="2.5" stroke-miterlimit="10" stroke-linecap="round" stroke-linejoin="round"/>
</svg>
