<svg width="297" height="434" viewBox="0 0 297 434" fill="none" xmlns="http://www.w3.org/2000/svg">
<path fill-rule="evenodd" clip-rule="evenodd" d="M103.814 157.643C107.296 153.956 108.731 146.873 108.173 142.918C107.773 140.559 106.588 138.403 104.811 136.8C103.033 135.198 100.766 134.242 98.3776 134.089C92.7744 133.774 86.383 134.181 81.6793 137.21C78.2734 139.585 75.1539 142.347 72.3833 145.439C72.9422 143.21 73.0573 140.892 72.7218 138.619C72.1865 134.652 68.3217 134.036 66.0701 134.985C65.3797 135.202 64.7572 135.594 64.2635 136.123C63.7697 136.652 63.4215 137.3 63.2528 138.004C63.0565 138.821 62.9827 139.662 63.0339 140.5C62.423 139.533 61.471 138.831 60.3666 138.532C59.6143 138.403 58.8429 138.436 58.1046 138.63C57.3663 138.824 56.6782 139.175 56.087 139.658C54.8615 140.481 53.9836 141.728 53.622 143.159C53.198 144.855 54.5032 147.721 54.5032 147.721C53.3142 147.86 52.2169 148.428 51.4174 149.319C50.0021 150.695 49.1035 152.516 48.8724 154.476C48.6885 156.016 48.9725 157.576 49.6873 158.953C50.5055 160.038 51.4198 161.047 52.419 161.969C51.7452 162.578 51.12 163.24 50.5491 163.947C49.4424 165.173 48.5993 166.613 48.0722 168.178C47.5331 170.185 47.5208 172.298 48.0363 174.312C48.4714 175.785 49.43 177.048 50.7316 177.864C52.0332 178.68 53.5882 178.992 55.1038 178.741C54.1643 180.087 53.4101 181.554 52.8614 183.101C52.6212 183.949 52.5722 184.84 52.7179 185.709C52.8636 186.579 53.2004 187.405 53.7039 188.128C55.2272 189.796 56.884 191.336 58.6577 192.734L62.1997 200.163L65.8374 198.876C65.8374 198.876 66.3892 202.337 68.6068 203.71C70.5884 204.82 72.9186 205.134 75.1233 204.588C76.5784 204.192 77.8678 201.908 77.8678 201.908C77.8678 201.908 79.6779 204.531 82.2027 204.888C84.7274 205.245 98.419 201.63 98.419 201.63L86.853 169.218C86.853 169.218 100.326 161.329 103.811 157.643H103.814Z" fill="#061428"/>
<path fill-rule="evenodd" clip-rule="evenodd" d="M100.111 147.057C102.546 152.06 104.257 157.383 105.194 162.867C106.022 168.678 106.152 175.965 105.186 180.159C104.456 183.549 102.544 186.57 99.7914 188.681C97.7091 190.228 93.113 192.254 88.8039 190.97C84.4948 189.686 81.1322 187.521 79.2559 184.825C79.7832 183.077 80.0468 181.26 80.0377 179.434C80.0156 177.761 79.7523 176.101 79.2559 174.503C76.7449 175.404 74.9063 173.797 74.3168 171.265C73.7272 168.734 74.9919 166.891 77.3244 167.204C79.6569 167.517 83.3028 164.984 82.6691 161.486C85.5596 161.506 88.4203 160.902 91.0555 159.714C93.5516 158.69 95.6771 156.93 97.1498 154.669C98.6215 152.429 100.113 149.059 100.113 147.063L100.111 147.057Z" fill="#E88D95"/>
<path fill-rule="evenodd" clip-rule="evenodd" d="M81.1882 137.531C81.0963 137.715 80.0367 138.375 79.7258 138.658C78.9422 139.435 78.2074 140.26 77.5258 141.128C75.6373 143.332 74.0985 145.814 72.9628 148.486C71.173 152.783 69.6268 157.742 69.4751 162.44C69.3828 164.027 69.5275 165.619 69.9046 167.163C70.0376 167.708 70.1985 168.246 70.3866 168.774C70.4463 168.95 70.8796 169.794 70.7094 169.794C70.03 169.108 69.4022 168.372 68.8312 167.594C67.3946 165.487 65.831 163.598 65.235 161.045C64.6353 158.749 64.3284 156.386 64.3217 154.013C64.567 148.284 67.0308 142.875 71.1923 138.929C73.1339 137.002 76.0367 135.387 78.8143 135.387C80.1542 135.407 81.448 135.879 82.4851 136.727L81.1882 137.534V137.531Z" fill="#AB8DE5"/>
<path fill-rule="evenodd" clip-rule="evenodd" d="M129.513 389.307C131.911 391.268 135.341 393.2 137.423 394.681C139.131 396.006 141.031 397.063 143.057 397.816C144.673 398.298 144.944 399.998 143.538 400.462C142.132 400.925 139.767 400.653 137.217 400.605L128.59 400.445C126.065 400.397 122.598 400.515 120.967 399.623C119.336 398.731 119.335 396.745 119.335 395.153C119.335 393.561 121.24 389.517 121.24 389.517C121.24 389.517 127.12 387.345 129.518 389.307H129.513Z" fill="#061428"/>
<path fill-rule="evenodd" clip-rule="evenodd" d="M61.7454 363.661C61.3195 366.053 61.1935 369.088 60.8983 372.692C60.7572 376.25 60.8281 379.812 61.1108 383.361C61.2027 385.678 59.6778 387.054 58.1887 384.601C56.1324 380.979 54.4548 377.154 53.1824 373.188C52.0217 369.357 51.9003 364.734 51.3346 362.757C50.769 360.78 50.3026 358.583 51.1433 358.41L57.6249 357.074C57.6249 357.074 62.1694 361.272 61.7454 363.663V363.661Z" fill="#061428"/>
<path fill-rule="evenodd" clip-rule="evenodd" d="M127.544 240.31C128.033 243.839 129.313 251.807 130.144 259.073C130.976 266.339 130.668 276.191 131.064 280.525C131.46 284.859 131.505 297.145 131.616 300.76L131.905 310.136C131.951 311.642 131.881 332.707 131.383 338.618C130.886 344.528 130.43 356.348 130.215 364.123L129.838 377.768L129.519 389.31L121.241 389.519C121.241 389.519 118.178 381.425 116.429 375.011C114.679 368.597 114.438 365.055 113.346 358.847C112.254 352.64 110.357 345.567 109.713 342.279C109.068 338.992 106.757 330.15 106.757 330.15L114.912 306.165L108.29 264.713L117.579 241.259C117.579 241.259 127.053 236.787 127.54 240.316L127.544 240.31Z" fill="#8669BE"/>
<path fill-rule="evenodd" clip-rule="evenodd" d="M94.2057 241.254C92.3661 243.059 90.6186 246.68 89.3309 249.249C88.0432 251.818 87.0977 256.958 86.9009 260.163C86.701 265.775 86.8285 271.393 87.2826 276.989C87.7738 281.932 89.72 287.827 91.9734 292.804L97.1241 304.16C92.5545 308.927 88.4395 314.111 84.8324 319.642C79.4352 328.133 73.8633 333.365 69.0833 339.532L56.6904 355.518L61.819 364.12L64.3024 362.189C64.3024 362.189 70.3903 357.03 76.4303 352.744L98.3611 337.184C104.654 332.719 113.161 323.939 117.568 319.39C121.974 314.841 122.727 310.625 122.882 306.37C123.036 302.115 122.247 286.466 121.905 281.108L120.557 259.98L119.965 250.708C119.965 250.708 123.634 246.349 124.968 244.27L127.462 240.379C127.459 239.577 127.383 238.776 127.235 237.988L126.258 232.415C126.025 231.087 124.201 229.136 124.201 229.136C124.201 229.136 96.0286 239.446 94.1937 241.251L94.2057 241.254Z" fill="#AB8DE5"/>
<path fill-rule="evenodd" clip-rule="evenodd" d="M136.306 152.642C135.926 153.705 135.48 154.744 134.97 155.751C132.764 159.686 129.293 162.76 125.122 164.477C122.588 165.533 119.212 166.248 116.71 164.624C112.779 162.072 113.554 156.696 114.917 152.88C115.486 151.567 116.272 150.359 117.242 149.307C117.572 148.922 117.978 148.657 118.334 148.304L123.805 148.741C123.713 148.793 123.508 148.763 123.396 148.815C123.091 149.003 122.817 149.237 122.584 149.509C121.432 150.562 120.107 152.042 119.857 153.648C119.812 153.974 119.804 154.303 119.832 154.63C119.862 155.056 119.999 155.467 120.23 155.825C121.028 156.89 122.924 156.161 123.755 155.582C124.431 155.112 125.063 154.584 125.645 154.002C126.334 153.216 126.87 152.307 127.223 151.323L136.306 152.639V152.642Z" fill="#EDC152"/>
<path fill-rule="evenodd" clip-rule="evenodd" d="M114.648 162.382C113.181 159.602 113.878 155.789 114.917 152.88C115.486 151.567 116.272 150.359 117.242 149.307C117.572 148.922 117.978 148.657 118.334 148.304L123.805 148.741C123.713 148.793 123.508 148.763 123.396 148.815C123.091 149.003 122.817 149.237 122.584 149.509C121.431 150.562 120.107 152.042 119.857 153.648C119.812 153.974 119.803 154.303 119.832 154.63C119.862 155.056 119.999 155.467 120.23 155.825C121.028 156.89 122.924 156.161 123.755 155.582C124.43 155.112 125.063 154.584 125.645 154.002C126.334 153.216 126.87 152.307 127.223 151.323L134.279 152.345C134.287 152.903 134.16 153.455 133.908 153.954C133.657 154.452 133.288 154.882 132.834 155.206C132.422 155.488 131.971 155.71 131.496 155.863C130.968 156.003 130.529 155.933 130.132 156.387C129.478 157.133 129.64 158.158 129.266 159.012C128.997 159.559 128.527 159.982 127.954 160.192C127.329 160.403 126.658 160.439 126.013 160.297C125.529 160.211 124.844 159.872 124.357 160.087C123.002 160.69 123.003 162.719 121.76 163.497C121.454 163.663 121.111 163.75 120.762 163.75C120.414 163.75 120.071 163.663 119.765 163.497C118.629 162.993 117.43 161.908 116.17 161.74C115.881 161.691 115.584 161.726 115.314 161.84C115.044 161.954 114.812 162.142 114.645 162.383L114.648 162.382Z" fill="#D2416E"/>
<path fill-rule="evenodd" clip-rule="evenodd" d="M120.17 189.118C123.568 188.382 127.022 187.932 130.496 187.775L141.561 186.901C144.115 186.698 147.098 186.925 147.08 184.83C147.061 182.735 144.345 170.854 142.8 166.409C141.255 161.964 141.072 155.604 139.744 154.702C138.416 153.801 139.312 153.599 138.128 153.606C137.027 153.638 135.951 153.277 135.093 152.586C134.291 151.923 133.545 152.586 132.448 152.586C131.352 152.586 128.267 154.459 124.972 152.586C121.676 150.713 121.832 149.596 121.667 148.97C121.501 148.345 120.685 149.286 118.965 148.86C117.244 148.434 117.229 145.692 118.312 144.276L121.121 140.597C122.204 139.181 125.52 138.33 127.526 138.312C129.532 138.295 131.941 138.272 134.376 138.252C136.812 138.231 139.343 138.872 140.21 139.751C141.289 140.843 142.167 142.348 143.069 143.262C145.009 145.742 146.752 148.37 148.284 151.121L153.131 161.586C154.57 164.693 158.225 169.864 160.431 177.345C162.638 184.826 165.149 187.81 164.71 191.853C164.271 195.897 163.054 196.28 158.153 198.877C153.251 201.473 145.792 207.017 137.423 209.865L124.028 214.423C124.028 214.423 117.18 189.93 120.17 189.118Z" fill="#E88D95"/>
<path fill-rule="evenodd" clip-rule="evenodd" d="M15.8935 199.453C15.2281 199.172 14.6763 198.676 14.3261 198.044C13.976 197.412 13.8478 196.681 13.962 195.967C14.0007 194.181 15.7914 192.3 18.5535 192.131C21.3155 191.962 27.6251 192.359 30.5527 192.205C33.4803 192.05 34.9427 192.402 36.3959 193.538C37.1 194.027 37.5947 194.763 37.7821 195.599C37.9695 196.436 37.8359 197.312 37.4077 198.054C37.1049 198.657 36.6258 199.152 36.0342 199.475C35.4427 199.798 34.7668 199.933 34.0965 199.863C32.3103 199.898 17.7514 200.49 15.9009 199.453H15.8935Z" fill="#EDC152"/>
<path fill-rule="evenodd" clip-rule="evenodd" d="M41.1115 199.76C40.3717 199.308 39.7888 198.639 39.442 197.844C39.0952 197.05 39.0011 196.168 39.1726 195.318C39.5828 193.663 40.2018 192.724 42.6613 192.299C45.5057 191.756 48.3936 191.471 51.2896 191.448C54.7212 191.448 58.9447 191.816 60.2655 192.299C60.9655 192.511 61.5578 192.983 61.9205 193.618C62.2833 194.253 62.3888 195.002 62.2154 195.713C62.0601 196.64 61.6172 197.494 60.9494 198.156C60.2815 198.817 59.4225 199.252 58.4941 199.398C56.4126 199.647 42.5362 200.52 41.1106 199.76H41.1115Z" fill="#EDC152"/>
<path fill-rule="evenodd" clip-rule="evenodd" d="M26.9021 192.425C25.2143 191.936 24.3139 189.463 25.1959 187.749C26.078 186.036 28.0729 184.78 31.8072 184.573L39.3492 184.155C41.0627 184.063 45.1759 184.172 46.7459 184.311C48.316 184.45 50.414 185.558 50.5059 187.467C50.5641 188.09 50.4932 188.718 50.2975 189.312C50.1018 189.906 49.7856 190.453 49.3687 190.919C48.9518 191.386 48.4431 191.761 47.8745 192.021C47.306 192.282 46.6897 192.422 46.0644 192.434C42.6089 192.563 28.5889 192.915 26.9003 192.426L26.9021 192.425Z" fill="#EDC152"/>
<path fill-rule="evenodd" clip-rule="evenodd" d="M13.9602 196.465V195.967C13.9988 194.181 15.7896 192.3 18.5516 192.131C21.3137 191.962 27.6232 192.359 30.5508 192.205C33.4784 192.05 34.9427 192.402 36.3959 193.538C36.9813 193.99 37.4276 194.597 37.6836 195.291C37.133 195.915 36.4585 196.418 35.7031 196.767C34.9476 197.117 34.1277 197.306 33.2954 197.321C31.5156 197.25 30.5977 195.212 28.8345 195.33C27.6232 195.411 27.1882 196.547 26.3153 197.201C26.0667 197.364 25.788 197.475 25.4956 197.529C25.2032 197.583 24.9031 197.577 24.6128 197.513C23.1936 197.364 22.5176 195.988 21.2548 195.521C20.7571 195.369 20.2292 195.345 19.7197 195.451C19.49 195.464 19.2636 195.513 19.0483 195.594C18.3825 196.045 17.7552 196.551 17.1729 197.105C16.7434 197.364 16.2427 197.481 15.743 197.437C15.2433 197.394 14.7701 197.193 14.3915 196.864C14.2367 196.743 14.0915 196.609 13.9574 196.465H13.9602Z" fill="#D2416E"/>
<path fill-rule="evenodd" clip-rule="evenodd" d="M24.954 188.394C25.0098 188.171 25.091 187.955 25.1959 187.75C26.0771 186.037 28.073 184.78 31.8072 184.574L39.3492 184.156C41.0627 184.064 45.1759 184.173 46.746 184.312C47.4596 184.362 48.1507 184.583 48.7607 184.956C49.3706 185.33 49.8813 185.846 50.2493 186.459C50.147 186.452 50.0443 186.459 49.944 186.48C47.9508 186.878 47.4716 189.638 45.1833 189.638C44.3642 189.595 43.5808 189.289 42.9501 188.765C42.263 188.274 41.5502 187.364 40.5955 187.483C38.9611 187.687 38.2786 190.183 36.4741 190.011C35.5594 189.877 34.7168 189.438 34.0827 188.765C33.6798 188.392 33.0811 187.719 32.4759 187.719C32.1341 187.701 31.7913 187.715 31.4522 187.761C30.9205 187.867 30.5324 188.497 30.1709 188.834C29.5208 189.505 28.6449 189.912 27.7124 189.976C27.1635 189.936 26.6307 189.773 26.1531 189.499C25.6756 189.226 25.2655 188.848 24.9531 188.395L24.954 188.394Z" fill="#D2416E"/>
<path fill-rule="evenodd" clip-rule="evenodd" d="M39.0807 196.346C39.0598 196 39.0908 195.653 39.1726 195.316C39.5828 193.661 40.2018 192.723 42.6613 192.298C45.5058 191.754 48.3937 191.469 51.2896 191.446C54.7212 191.446 58.9447 191.814 60.2655 192.298C60.9655 192.509 61.5578 192.981 61.9206 193.616C62.2833 194.251 62.3888 195.001 62.2154 195.711C62.2001 195.786 62.1826 195.862 62.163 195.936C61.2307 195.839 60.3321 195.534 59.5334 195.043C58.7187 194.443 57.728 194.129 56.7162 194.152C54.4673 194.422 53.382 197.187 51.2049 197.426C50.2123 197.407 49.2638 197.012 48.5496 196.323C47.9977 195.73 47.3843 194.823 46.4811 194.759C44.8255 194.631 43.9057 196.288 42.5261 196.827C41.9575 196.998 41.3594 197.045 40.7711 196.967C40.1829 196.888 39.618 196.686 39.1138 196.373L39.0843 196.347L39.0807 196.346Z" fill="#D2416E"/>
<path fill-rule="evenodd" clip-rule="evenodd" d="M9.19763 199.409C9.92696 201.427 11.004 203.301 12.38 204.946C13.6511 206.484 16.6587 208.165 18.2058 208.165H29.3018C30.6731 208.165 49.6506 208.165 54.4904 207.614C59.3301 207.062 61.785 206.99 63.0193 205.891C64.2536 204.792 68.2233 199.085 68.2233 199.085C63.4252 199.444 58.6113 199.544 53.8024 199.384C43.9122 199.209 36.3067 199.592 28.7039 199.683C21.1012 199.774 11.7371 198.879 9.19763 199.407V199.409Z" fill="#061428"/>
<path fill-rule="evenodd" clip-rule="evenodd" d="M79.4461 206.408C77.1467 208.941 76.7788 211.103 75.1885 215.344L69.0859 231.587C68.8376 232.248 67.2464 230.415 64.3142 227.347C61.382 224.279 56.912 219.59 53.8933 216.425L49.3644 211.683C49.6144 211.147 49.825 210.593 49.9944 210.027C50.0656 209.465 49.9777 208.894 49.7408 208.38C49.5039 207.865 49.1275 207.427 48.6544 207.116C47.6518 206.331 44.8668 206.022 42.8543 206.02C40.8419 206.017 39.9451 206.393 39.8099 207.079C39.6747 207.765 37.5804 207.57 34.9922 207.758C32.404 207.946 30.1699 207.258 29.1057 208.186C28.0416 209.113 29.5656 210.511 31.6103 211.045L38.56 212.865C40.1098 213.272 44.5035 214.421 44.5035 214.421C44.5035 214.421 45.4986 217.529 46.1977 219.493L50.0487 230.305C51.3511 233.959 55.009 241.669 56.8549 244.328C58.7009 246.986 61.9559 251.254 67.6732 250.651C73.3904 250.048 79.0709 243.255 81.5423 241.251C84.0137 239.247 90.0041 233.309 90.0041 233.309C90.0041 233.309 81.7262 203.877 79.4351 206.405L79.4461 206.408Z" fill="#E88D95"/>
<path fill-rule="evenodd" clip-rule="evenodd" d="M121.811 195.754C124.98 200.813 127.238 213.072 127.238 213.072L124.027 214.423C124.027 214.423 122.486 202.11 121.81 195.752L121.811 195.754Z" fill="#DA6771"/>
<path fill-rule="evenodd" clip-rule="evenodd" d="M82.8438 214.936C83.7635 219.655 84.1434 238.959 84.1434 238.959L90.0115 233.316C90.0115 233.316 81.924 210.214 82.8438 214.936Z" fill="#DA6771"/>
<path fill-rule="evenodd" clip-rule="evenodd" d="M79.4462 206.408C81.6175 204.224 83.9886 202.249 86.5283 200.507C88.2048 199.509 89.9896 198.704 91.8482 198.11L101.795 194.44C101.795 194.44 105.291 192.551 107.59 191.374C109.889 190.198 112.777 189.903 114.686 189.407C116.496 189.098 118.337 189.001 120.17 189.118C121.522 193.848 122.488 198.679 123.06 203.565L124.966 224.971C124.922 226.39 124.668 227.794 124.212 229.139L94.2047 241.254C94.2047 241.254 92.7137 238.403 91.3644 236.132C90.0152 233.861 88.1499 228.281 86.7187 225.506C85.2876 222.731 83.7985 217.065 82.4823 214.147C81.1661 211.228 80.1755 208.027 79.4471 206.408H79.4462Z" fill="#FBDC8E"/>
<path fill-rule="evenodd" clip-rule="evenodd" d="M89.3345 189.431C89.4523 189.332 89.2987 189.746 89.3401 189.895C89.3952 190.079 89.4909 190.263 89.5534 190.447C89.9103 191.52 90.3086 192.595 90.6167 193.682C90.9322 194.793 91.1134 195.944 91.4684 197.045C91.5088 197.171 91.5981 198.046 91.8501 198.11C92.6407 198.409 93.4519 198.65 94.2773 198.833C94.8276 198.892 95.3827 198.892 95.9329 198.833C96.9902 198.777 98.016 198.453 98.9133 197.891C99.8106 197.329 100.55 196.548 101.061 195.621C101.351 195.255 101.598 194.858 101.797 194.436C101.521 193.377 101.136 192.35 100.648 191.371L98.1928 184.826" fill="#E88D95"/>
<path d="M99.3407 167.345C99.468 167.077 99.6903 166.866 99.9642 166.753C102.28 165.402 102.898 169.217 101.513 169.788M100.194 163.103C100.631 163.502 101.206 163.717 101.797 163.701C102.222 163.71 102.635 163.56 102.956 163.28C103.276 163 103.48 162.612 103.529 162.189L100.194 163.103ZM90.5606 165.643C90.6011 165.611 90.4291 165.561 90.4291 165.561C90.4291 165.561 90.6995 165.745 90.8264 165.85C91.1944 166.138 91.6104 166.358 92.0552 166.5C93.6326 166.973 96.0295 166.61 96.0295 164.477L90.5606 165.643Z" stroke="#061428" stroke-width="1.587" stroke-linecap="round" stroke-linejoin="round"/>
<path fill-rule="evenodd" clip-rule="evenodd" d="M102.218 172.526C100.435 173.926 98.2878 174.785 96.0313 175.002C94.4437 175.067 92.8543 174.93 91.301 174.595C91.0901 175.821 91.1605 177.079 91.507 178.274C92.0439 180.2 93.3133 181.839 95.0435 182.841C95.8387 183.284 96.7414 183.497 97.6509 183.457C98.5603 183.417 99.4408 183.125 100.194 182.614C101.626 181.662 102.185 179.974 102.576 178.323C103.115 176.406 102.989 174.364 102.219 172.528L102.218 172.526Z" fill="#DA6771"/>
<path fill-rule="evenodd" clip-rule="evenodd" d="M99.6691 188.766C98.2294 189.748 96.572 190.365 94.8403 190.563C96.4389 191.237 97.2924 191.93 98.73 192.203L101.213 192.677C101.213 192.677 100.149 189.982 99.6654 188.766H99.6691Z" fill="#DA6771"/>
<path d="M122.486 147.42C122.884 146.519 123.511 145.738 124.304 145.155" stroke="#DA6771" stroke-width="1.427" stroke-linecap="round" stroke-linejoin="round"/>
<path d="M32.9082 392.712V392.125L31.5084 390.366L28.3004 386.407L24.8592 382.22C24.8592 382.22 21.5462 379.915 20.6947 379.516C17.5917 378.074 14.5354 376.971 10.8842 376.971C8.63866 376.971 0.245525 377.311 0.228027 378.731C0.228027 380.836 11.9808 388.806 20.6014 392.676C24.3576 392.712 32.9082 392.712 32.9082 392.712Z" fill="#19A5A1"/>
<path d="M31.1289 392.712C19.1662 383.475 -5.24915 332.981 1.00925 314.273C14.3426 321.105 28.9708 344.663 35.8708 364.556C36.236 365.85 36.5281 367.164 36.7457 368.491L39.5454 381.393L40.2453 392.712H31.1289Z" fill="#32CFCB"/>
<path d="M39.2949 392.712C35.2587 389.416 33.9697 379.657 33.9347 376.015C33.8706 369.218 34.9088 364.21 40.6889 356.733C46.469 349.255 44.9117 336.846 52.6108 328.483C60.3098 320.12 65.3725 317.792 74.4831 317.792C83.5936 317.792 86.4808 332.641 86.4574 336.377C86.3524 351.437 76.9094 353.566 71.1585 360.762C66.9765 365.981 66.6499 370.25 65.3842 372.69C58.5834 385.821 53.0774 390.782 48.9945 392.712" fill="#73E5E2"/>
<path d="M41.4996 391.621C41.6163 365.916 68.5571 327.31 74.3139 321.522" stroke="white" stroke-width="0.4" stroke-linecap="round" stroke-linejoin="round"/>
<path d="M42.9753 379.956C39.9948 376.69 37.2826 367.43 37.6909 365.025" stroke="white" stroke-width="0.4" stroke-linecap="round" stroke-linejoin="round"/>
<path d="M35.3403 390.512C31.1175 382.971 11.0824 346.282 3.58752 319.252" stroke="white" stroke-width="0.4" stroke-linecap="round" stroke-linejoin="round"/>
<path d="M48.9946 392.712H61.5347L51.036 432.033H22.9636L12.634 392.712H48.9946Z" fill="#061428"/>
<path d="M4.30505 379.534C10.4235 379.956 18.1225 380.238 23.5819 383.962" stroke="white" stroke-width="0.4" stroke-linecap="round" stroke-linejoin="round"/>
<path d="M184.347 280.842L136.064 431.902" stroke="#061428" stroke-width="4" stroke-miterlimit="10" stroke-linecap="round"/>
<path d="M184.347 280.842L232.617 431.902" stroke="#061428" stroke-width="4" stroke-miterlimit="10" stroke-linecap="round"/>
<path d="M151.913 382.311L205.739 347.807" stroke="#061428" stroke-width="2" stroke-miterlimit="10" stroke-linecap="round"/>
<path d="M184.347 299.836C231.807 299.836 270.28 291.332 270.28 280.842C270.28 270.351 231.807 261.847 184.347 261.847C136.888 261.847 98.4144 270.351 98.4144 280.842C98.4144 291.332 136.888 299.836 184.347 299.836Z" fill="#E8EBF0"/>
<path d="M162.738 347.807L216.55 382.311" stroke="#061428" stroke-width="2" stroke-miterlimit="10" stroke-linecap="round"/>
<path d="M272.439 95.3663C272.439 92.7469 270.316 90.6235 267.696 90.6235C265.077 90.6235 262.953 92.7469 262.953 95.3663V111.737C262.953 114.357 265.077 116.48 267.696 116.48C270.316 116.48 272.439 114.357 272.439 111.737V95.3663Z" fill="#061428"/>
<path d="M267.696 144C272.951 144 277.212 139.74 277.212 134.485C277.212 129.229 272.951 124.969 267.696 124.969C262.441 124.969 258.181 129.229 258.181 134.485C258.181 139.74 262.441 144 267.696 144Z" fill="#FBDC8E"/>
<path d="M267.696 105.796C263.928 105.795 260.197 106.536 256.715 107.977C253.234 109.419 250.07 111.532 247.405 114.196C244.741 116.86 242.627 120.023 241.185 123.504C239.742 126.985 239 130.716 239 134.485H296.385C296.385 126.876 293.362 119.579 287.982 114.199C282.602 108.818 275.305 105.796 267.696 105.796Z" fill="#AB8DE5"/>
<path d="M267.696 96.0856V-8" stroke="#061428" stroke-width="2" stroke-linecap="round" stroke-linejoin="round"/>
</svg>
