<svg width="27" height="73" viewBox="0 0 27 73" fill="none" xmlns="http://www.w3.org/2000/svg">
<path d="M13.5 13.695C16.9192 13.695 19.691 10.9232 19.691 7.504C19.691 4.08481 16.9192 1.313 13.5 1.313C10.0808 1.313 7.30902 4.08481 7.30902 7.504C7.30902 10.9232 10.0808 13.695 13.5 13.695Z" stroke="#061428" stroke-width="2.5" stroke-miterlimit="10"/>
<path d="M20.283 71.688L20.873 47.459C23.146 46.64 25.438 44.737 25.198 42.349L23.765 23.911C23.525 21.52 21.361 19.563 18.958 19.563H8.04201C5.63901 19.563 3.47501 21.52 3.23501 23.911L1.80101 42.349C1.56101 44.74 3.85201 46.64 6.12801 47.459L6.71501 71.688" stroke="#061428" stroke-width="2.5" stroke-miterlimit="10" stroke-linecap="round" stroke-linejoin="round"/>
</svg>
