<svg width="20" height="22" viewBox="0 0 20 22" fill="none" xmlns="http://www.w3.org/2000/svg">
<path fill-rule="evenodd" clip-rule="evenodd" d="M1.5 12.787V12.568C1.53314 11.9187 1.74152 11.2904 2.103 10.75C2.70365 10.1013 3.11641 9.30141 3.297 8.436C3.297 7.77 3.297 7.094 3.355 6.427C3.654 3.218 6.827 1 9.96 1H10.038C13.171 1 16.344 3.218 16.655 6.427C16.713 7.094 16.655 7.77 16.703 8.436C16.8858 9.30308 17.2978 10.1053 17.896 10.759C18.261 11.297 18.469 11.923 18.498 12.569V12.778C18.52 13.648 18.22 14.497 17.654 15.168C16.9 15.9547 15.8864 16.4414 14.801 16.538C11.606 16.881 8.382 16.881 5.187 16.538C4.1028 16.4371 3.09063 15.9511 2.334 15.168C1.77845 14.501 1.48231 13.6559 1.5 12.788V12.787Z" stroke="#061428" stroke-width="1.5" stroke-linecap="round" stroke-linejoin="round"/>
<path d="M7.555 19.852C8.06204 20.4797 8.79467 20.8841 9.59607 20.9785C10.3975 21.0728 11.204 20.8498 11.843 20.357C12.039 20.211 12.215 20.041 12.367 19.852" stroke="#061428" stroke-width="1.5" stroke-linecap="round" stroke-linejoin="round"/>
</svg>
