<svg width="17" height="22" viewBox="0 0 17 22" fill="none" xmlns="http://www.w3.org/2000/svg">
<path d="M8.57899 11.056C11.2178 11.056 13.357 8.91682 13.357 6.278C13.357 3.63918 11.2178 1.5 8.57899 1.5C5.94018 1.5 3.80099 3.63918 3.80099 6.278C3.80099 8.91682 5.94018 11.056 8.57899 11.056Z" stroke="#061428" stroke-width="1.5" stroke-linecap="round" stroke-linejoin="round"/>
<path fill-rule="evenodd" clip-rule="evenodd" d="M0.999998 17.701C0.998848 17.3652 1.07408 17.0335 1.22 16.731C1.677 15.816 2.968 15.331 4.039 15.111C4.81126 14.946 5.59421 14.8358 6.382 14.781C7.84085 14.6528 9.30814 14.6528 10.767 14.781C11.554 14.837 12.337 14.947 13.11 15.111C14.18 15.331 15.471 15.77 15.93 16.731C16.0749 17.0356 16.1501 17.3687 16.1501 17.706C16.1501 18.0433 16.0749 18.3764 15.93 18.681C15.471 19.641 14.18 20.081 13.11 20.291C12.338 20.463 11.555 20.577 10.767 20.631C9.579 20.731 8.387 20.749 7.197 20.685C6.922 20.685 6.657 20.685 6.382 20.63C5.59651 20.5771 4.81623 20.4641 4.048 20.292C2.968 20.082 1.687 19.642 1.22 18.681C1.07458 18.3744 0.999424 18.0393 0.999998 17.7V17.701Z" stroke="#061428" stroke-width="1.5" stroke-linecap="round" stroke-linejoin="round"/>
</svg>
