<?xml version="1.0" encoding="iso-8859-1"?>
<!-- Uploaded to: SVG Repo, www.svgrepo.com, Generator: SVG Repo Mixer Tools -->
<svg fill="#000000" version="1.1" id="Layer_1" xmlns="http://www.w3.org/2000/svg" xmlns:xlink="http://www.w3.org/1999/xlink" 
	 viewBox="0 0 512 512" xml:space="preserve">
<g>
	<g>
		<path d="M0,72.037v367.926h512V72.037H0z M496.253,424.215H15.747V87.784h480.506V424.215z"/>
	</g>
</g>
<g>
	<g>
		<path d="M23.993,96.429v319.14h464.013V96.429H23.993z M472.259,399.822H39.74V112.176h432.518V399.822z"/>
	</g>
</g>
<g>
	<g>
		<polygon points="448.113,240.252 448.113,248.65 364.14,248.65 345.425,273.4 319.495,221.4 275.359,324.322 243.342,132.184 
			191.4,253.363 169.258,209.314 139.987,248.65 63.887,248.65 63.887,240.252 48.14,240.252 48.14,271.746 63.887,271.746 
			63.887,264.397 147.898,264.397 166.653,239.194 192.535,290.684 236.642,187.783 268.657,379.905 320.571,258.846 
			342.666,303.156 371.974,264.397 448.113,264.397 448.113,271.746 463.86,271.746 463.86,240.252 		"/>
	</g>
</g>
<g>
	<g>
		<rect x="439.72" y="368.333" width="16.797" height="15.747"/>
	</g>
</g>
<g>
	<g>
		<rect x="415.575" y="368.333" width="16.797" height="15.747"/>
	</g>
</g>
<g>
	<g>
		<rect x="392.479" y="368.333" width="15.747" height="15.747"/>
	</g>
</g>
<g>
	<g>
		<rect x="368.334" y="368.333" width="15.747" height="15.747"/>
	</g>
</g>
<g>
	<g>
		<rect x="304.296" y="127.928" width="79.785" height="15.747"/>
	</g>
</g>
<g>
	<g>
		<rect x="392.479" y="127.928" width="15.747" height="15.747"/>
	</g>
</g>
<g>
	<g>
		<rect x="415.575" y="127.928" width="16.797" height="15.747"/>
	</g>
</g>
<g>
	<g>
		<rect x="439.72" y="127.928" width="16.797" height="15.747"/>
	</g>
</g>
<g>
	<g>
		<rect x="56.538" y="368.333" width="15.747" height="15.747"/>
	</g>
</g>
<g>
	<g>
		<rect x="176.209" y="368.333" width="15.747" height="15.747"/>
	</g>
</g>
<g>
	<g>
		<rect x="79.634" y="344.188" width="15.747" height="39.892"/>
	</g>
</g>
<g>
	<g>
		<rect x="103.783" y="359.935" width="15.747" height="24.145"/>
	</g>
</g>
<g>
	<g>
		<rect x="127.929" y="328.441" width="15.747" height="55.64"/>
	</g>
</g>
<g>
	<g>
		<rect x="152.064" y="351.536" width="15.747" height="32.544"/>
	</g>
</g>
<g>
	<g>
		<rect x="55.488" y="127.928" width="88.183" height="15.747"/>
	</g>
</g>
</svg>